<svg xmlns="http://www.w3.org/2000/svg" fill="none" viewBox="0 0 67 72"><path fill="#C3A094" d="M48.2 0a18.3 18.3 0 0 0-10.13 3.1 24.77 24.77 0 0 1 2.17 3.52 14.5 14.5 0 0 1 7.97-2.48c7.55 0 13.75 6.2 13.75 13.76 0 7.55-6.2 13.76-13.75 13.76-2.9 0-5.59-.83-7.97-2.6a26.54 26.54 0 0 1-2.69 4.25v9.41c0 .52.41.94.93.94h8.28v4.96c0 .83.62 1.45 1.45 1.45.82 0 1.44-.62 1.44-1.45v-4.96h8.28c.52 0 .93-.42.93-.94V32.28l.41-.31A17.84 17.84 0 0 0 66.1 17.9C66.1 8.07 58.03 0 48.2 0Zm2.18 39v1.45a2.2 2.2 0 0 1-2.28 2.17 2.26 2.26 0 0 1-2.17-2.17V39a3.3 3.3 0 0 1-1.14-2.48 3.56 3.56 0 0 1 3.42-3.42 3.38 3.38 0 0 1 3.41 3.42c-.1.93-.52 1.86-1.24 2.48ZM30.52 5.28A17.52 17.52 0 0 0 17.9 0C8.07 0 0 8.07 0 17.9a18 18 0 0 0 6.83 14.07l.41.3v10.45c0 .52.42.94.93.94h8.28v4.96c0 .83.62 1.45 1.45 1.45.82 0 1.44-.62 1.44-1.45v-4.96h8.28c.52 0 .93-.42.93-.94V32.28l.42-.31a17.84 17.84 0 0 0 1.55-26.7ZM20.17 39v1.35A2.19 2.19 0 0 1 18 42.52a2.19 2.19 0 0 1-2.17-2.17V39a3.3 3.3 0 0 1-1.14-2.48 3.44 3.44 0 0 1 3.41-3.42 3.44 3.44 0 0 1 3.42 3.42c-.2.93-.62 1.86-1.35 2.48Zm-2.27-7.34c-7.56 0-13.76-6.21-13.76-13.76 0-7.56 6.2-13.76 13.76-13.76 7.55 0 13.76 6.2 13.76 13.76 0 7.55-6.21 13.76-13.76 13.76ZM25.35 68.69c0 .41 0 .72-.31 1.03-.31.42-.73.62-1.25.62-.3 0-.62-.1-.82-.3a7.24 7.24 0 0 1-2.18-2.18 2 2 0 0 1-.3-1.03c0-.31.2-.73.51-.93.31-.21.62-.31.93-.31.42 0 .83.2 1.14.62.52.51 1.04 1.24 1.76 1.55.31.2.41.52.52.93ZM18.73 61.04H18.52c-.62 0-1.24-.42-1.45-1.14-.2-.83-.41-1.86-.41-2.8 0-.4.1-.72.3-1.03.21-.31.63-.52.94-.52h.2c.73 0 1.35.52 1.35 1.24.1.94.2 1.76.41 2.59.21.72-.3 1.45-1.13 1.66ZM35.9 70.55c0 .83-.63 1.45-1.45 1.45h-2.7c-.82 0-1.44-.62-1.44-1.45s.62-1.45 1.45-1.45h2.69c.82 0 1.44.62 1.44 1.45ZM49.45 57c-.1 1.03-.21 2.07-.42 2.9-.2.72-.82 1.13-1.45 1.13H47.29c-.83-.2-1.25-.93-1.14-1.75.2-.83.3-1.56.41-2.49.1-.72.72-1.34 1.45-1.34h.2c.42 0 .83.2 1.04.52.1.3.2.72.2 1.03ZM45.31 67.86c-.83.93-1.45 1.66-2.27 2.17h-.1l-.11.1c-.1.21-.41.21-.62.21-.42 0-.83-.3-1.14-.62-.52-.62-.31-1.55.31-2.07.52-.4 1.14-.93 1.66-1.55.3-.3.72-.51 1.24-.51.3 0 .62.1.82.3.63.42.73 1.35.21 1.97Z"/></svg>