<?xml version="1.0" standalone="no"?>
<!DOCTYPE svg PUBLIC "-//W3C//DTD SVG 20010904//EN"
 "http://www.w3.org/TR/2001/REC-SVG-20010904/DTD/svg10.dtd">
<svg version="1.0" xmlns="http://www.w3.org/2000/svg"
 width="576.000000pt" height="576.000000pt" viewBox="0 0 576.000000 576.000000"
 preserveAspectRatio="xMidYMid meet">
<metadata>
Created by potrace 1.14, written by Peter Selinger 2001-2017
</metadata>
<g transform="translate(0.000000,576.000000) scale(0.100000,-0.100000)"
fill="#000000" stroke="none">
<path d="M1475 5753 c-65 -8 -233 -46 -290 -64 -69 -23 -102 -37 -200 -86 -61
-31 -95 -52 -202 -124 -50 -34 -171 -147 -229 -214 -165 -191 -270 -402 -326
-655 -19 -88 -23 -134 -22 -280 0 -96 3 -186 6 -200 3 -14 9 -41 13 -60 3 -19
7 -42 9 -50 16 -85 63 -216 117 -325 47 -95 68 -134 79 -145 3 -3 19 -25 35
-50 17 -25 41 -58 55 -75 40 -48 192 -198 227 -224 l32 -23 0 -419 c1 -231 3
-430 7 -443 11 -46 30 -48 390 -50 l339 -1 1 -215 c0 -194 2 -218 19 -244 35
-53 107 -66 162 -30 44 28 50 57 51 254 0 102 1 197 1 212 l1 26 338 -1 c356
0 374 2 388 45 4 13 8 213 8 445 1 232 3 423 6 425 244 180 417 429 519 750
12 38 14 44 31 138 55 297 14 597 -120 875 -155 321 -418 571 -747 709 -67 28
-207 70 -263 80 -19 3 -46 8 -60 12 -30 7 -333 13 -375 7z m325 -337 c14 -3
39 -7 56 -10 41 -6 177 -51 233 -77 55 -26 188 -106 219 -133 152 -132 269
-284 336 -438 9 -20 16 -38 16 -41 0 -3 5 -18 12 -34 6 -15 12 -32 13 -38 2
-5 7 -28 13 -50 22 -80 24 -103 28 -245 3 -116 0 -163 -16 -235 -31 -147 -75
-256 -154 -380 -37 -58 -145 -188 -176 -211 -8 -7 -28 -24 -45 -39 -116 -104
-335 -208 -506 -239 -13 -2 -24 -5 -24 -6 0 -10 -261 -14 -310 -5 -89 17 -180
38 -210 49 -11 5 -38 15 -60 23 -46 17 -176 86 -219 117 -146 104 -292 275
-365 429 -28 59 -69 172 -77 210 -2 10 -6 26 -8 35 -19 60 -28 290 -15 377 22
138 73 291 126 377 13 21 23 40 23 43 0 6 36 58 55 81 6 7 21 27 35 45 45 58
153 159 225 208 198 137 409 201 645 195 69 -2 136 -5 150 -8z m-26 -2340
c121 -63 172 -189 126 -307 -12 -30 -36 -72 -54 -94 -27 -33 -33 -48 -32 -85
5 -149 -70 -240 -185 -227 -68 8 -104 30 -135 83 -21 36 -27 58 -28 117 -1 62
-5 77 -28 108 -67 86 -79 188 -34 282 66 141 231 196 370 123z"/>
<path d="M3847 5744 c-175 -27 -350 -87 -501 -171 -109 -61 -106 -50 -43 -145
30 -46 63 -101 75 -123 35 -68 46 -79 63 -64 36 33 159 93 267 130 45 15 82
26 82 24 0 -2 14 0 30 5 81 23 316 32 410 16 547 -97 936 -565 924 -1111 -2
-90 -20 -217 -38 -270 -1 -5 -6 -23 -11 -40 -4 -16 -12 -36 -18 -42 -5 -7 -6
-13 -2 -13 4 0 2 -7 -5 -15 -7 -8 -9 -15 -4 -15 5 0 5 -4 -1 -8 -5 -4 -26 -38
-44 -77 -58 -116 -154 -237 -277 -346 -94 -84 -316 -196 -424 -215 -14 -3 -32
-7 -40 -10 -16 -6 -31 -9 -102 -19 -52 -7 -231 -8 -264 -1 -12 2 -39 7 -60 10
-122 20 -266 75 -372 143 -32 19 -59 39 -62 44 -3 5 -33 -37 -65 -92 -67 -113
-75 -126 -125 -195 l-35 -49 0 -388 c-1 -389 -1 -389 22 -413 12 -13 32 -24
45 -25 13 0 168 -1 345 -1 l322 0 3 -221 c3 -203 5 -224 23 -248 32 -43 79
-53 147 -33 9 3 26 20 37 38 19 30 20 50 21 248 l1 216 346 -1 347 0 23 27 23
27 0 428 0 429 38 28 c66 51 197 187 260 272 34 46 62 88 62 92 0 5 6 15 13
22 17 17 99 186 113 233 2 6 10 30 19 55 9 25 18 52 20 60 2 8 8 33 13 55 41
152 49 422 18 585 -12 67 -49 203 -66 245 -116 286 -309 529 -552 693 -60 40
-108 70 -108 67 0 -4 -13 3 -29 14 -16 12 -34 21 -40 21 -7 0 -22 7 -34 15
-32 20 -251 91 -310 100 -27 3 -59 9 -70 12 -53 12 -327 11 -410 -3z m319
-2656 c165 -77 208 -256 99 -408 -29 -41 -33 -53 -37 -132 -4 -79 -7 -92 -35
-125 -68 -86 -178 -96 -256 -24 -46 41 -60 79 -62 162 -2 70 -5 80 -34 116
-18 23 -34 47 -35 54 -2 8 -7 23 -11 34 -17 38 -9 128 16 180 29 61 99 131
139 140 16 4 32 10 35 15 10 16 139 8 181 -12z"/>
<path d="M3994 1312 c-31 -14 -62 -55 -69 -91 -2 -10 -6 -42 -10 -71 -4 -29
-9 -62 -11 -74 -16 -74 -15 -112 5 -143 28 -44 80 -66 123 -51 60 20 90 59
101 133 30 198 27 262 -16 289 -32 21 -88 25 -123 8z"/>
<path d="M1597 1307 c-43 -17 -69 -82 -62 -154 6 -68 12 -104 30 -180 12 -53
83 -104 135 -97 14 2 40 20 59 40 32 35 33 38 27 97 -4 33 -9 63 -10 66 -4 5
-11 57 -21 136 -4 40 -16 64 -40 79 -32 21 -83 27 -118 13z"/>
<path d="M1910 503 c-8 -3 -27 -17 -42 -30 -23 -22 -26 -32 -24 -74 4 -68 67
-149 181 -234 93 -68 209 -10 199 100 -2 30 -11 46 -35 65 -17 14 -67 60 -111
103 -71 69 -84 77 -116 76 -20 0 -44 -3 -52 -6z"/>
<path d="M3685 500 c-11 -5 -64 -51 -117 -102 -108 -103 -121 -132 -92 -193
31 -66 86 -85 152 -54 50 25 198 168 213 207 21 54 -2 120 -48 141 -28 13 -80
13 -108 1z"/>
<path d="M2715 228 c-43 -9 -61 -25 -79 -70 -19 -46 -9 -91 26 -125 29 -28 30
-28 181 -31 l152 -3 34 29 c31 25 35 35 37 82 3 49 0 56 -31 87 -24 24 -42 33
-66 34 -19 0 -75 1 -126 2 -51 1 -109 -1 -128 -5z"/>
</g>
</svg>
